<svg version="1.1" viewBox="0.0 0.0 168.76377952755905 168.76377952755905" fill="#ff4b4b" stroke="none" stroke-linecap="square" stroke-miterlimit="10" xmlns:xlink="http://www.w3.org/1999/xlink" xmlns="http://www.w3.org/2000/svg"><clipPath id="p.0"><path d="m0 0l168.76378 0l0 168.76378l-168.76378 0l0 -168.76378z" clip-rule="nonzero"/></clipPath><g clip-path="url(#p.0)"><path fill-opacity="0.0" d="m0 0l168.76378 0l0 168.76378l-168.76378 0z" fill-rule="evenodd"/><path d="m34.92207 14.520027l0 0c1.606926 -1.606926 4.212269 -1.606926 5.819195 0l113.51939 113.51939c0.7716675 0.77168274 1.2052002 1.8182831 1.2052002 2.909607c0 1.0913086 -0.4335327 2.137909 -1.2052002 2.9095917l-20.417023 20.417023c-1.6069336 1.6069336 -4.212265 1.6069336 -5.8191986 0l-113.51939 -113.51939c-1.606926 -1.606926 -1.606926 -4.212269 0 -5.819195z" fill-rule="evenodd"/><path d="m154.24693 34.925735l0 0c1.6069183 1.606926 1.6069183 4.212269 0 5.819195l-113.519394 113.51938c-0.7716713 0.77168274 -1.8182831 1.2052002 -2.9095955 1.2052002c-1.0913086 0 -2.1379242 -0.43351746 -2.9095955 -1.2052002l-20.417027 -20.417023c-1.606926 -1.6069183 -1.606926 -4.212265 0 -5.8191986l113.519394 -113.51938c1.6069183 -1.606926 4.212265 -1.606926 5.8191986 0z" fill-rule="evenodd"/></g></svg>