<svg version="1.1" viewBox="0.0 0.0 168.76377952755905 168.76377952755905" fill="none" stroke="none" stroke-linecap="square" stroke-miterlimit="10" xmlns:xlink="http://www.w3.org/1999/xlink" xmlns="http://www.w3.org/2000/svg"><clipPath id="p.0"><path d="m0 0l168.76378 0l0 168.76378l-168.76378 0l0 -168.76378z" clip-rule="nonzero"/></clipPath><g clip-path="url(#p.0)"><path fill="#000000" fill-opacity="0.0" d="m0 0l168.76378 0l0 168.76378l-168.76378 0z" fill-rule="evenodd"/><path fill="#000000" d="m164.50148 65.64042l0 0c0 20.699806 -13.276352 37.480316 -29.65355 37.480316c-16.377197 0 -29.653542 -16.78051 -29.653542 -37.480316l0 0c2.923874 17.756271 15.304161 30.482742 29.653542 30.482742c14.349396 0 26.729675 -12.726471 29.65355 -30.482742z" fill-rule="evenodd"/><path stroke="#000000" stroke-width="1.0" stroke-linejoin="round" stroke-linecap="butt" d="m164.50148 65.64042l0 0c0 20.699806 -13.276352 37.480316 -29.65355 37.480316c-16.377197 0 -29.653542 -16.78051 -29.653542 -37.480316l0 0c2.923874 17.756271 15.304161 30.482742 29.653542 30.482742c14.349396 0 26.729675 -12.726471 29.65355 -30.482742z" fill-rule="evenodd"/><path fill="#000000" fill-opacity="0.0" d="m63.08399 71.12295l42.11024 0" fill-rule="evenodd"/><path stroke="#000000" stroke-width="12.0" stroke-linejoin="round" stroke-linecap="butt" d="m63.08399 71.12295l42.11024 0" fill-rule="evenodd"/><path fill="#000000" d="m99.65602 71.01489l6.8976364 0l0 6.110237l-6.8976364 0z" fill-rule="evenodd"/><path fill="#000000" d="m63.472607 65.64173l0 0c0 20.699806 -13.276344 37.480316 -29.653545 37.480316c-16.3772 0 -29.653542 -16.78051 -29.653542 -37.480316l0 0c2.923871 17.756271 15.304155 30.482742 29.653542 30.482742c14.349388 0 26.729671 -12.726471 29.653545 -30.482742z" fill-rule="evenodd"/><path stroke="#000000" stroke-width="1.0" stroke-linejoin="round" stroke-linecap="butt" d="m63.472607 65.64173l0 0c0 20.699806 -13.276344 37.480316 -29.653545 37.480316c-16.3772 0 -29.653542 -16.78051 -29.653542 -37.480316l0 0c2.923871 17.756271 15.304155 30.482742 29.653542 30.482742c14.349388 0 26.729671 -12.726471 29.653545 -30.482742z" fill-rule="evenodd"/><path fill="#000000" d="m62.003708 71.01489l6.8976364 0l0 6.110237l-6.8976364 0z" fill-rule="evenodd"/></g></svg>