<svg version="1.1" viewBox="0.0 0.0 168.76377952755905 168.76377952755905" fill="none" stroke="none" stroke-linecap="square" stroke-miterlimit="10" xmlns:xlink="http://www.w3.org/1999/xlink" xmlns="http://www.w3.org/2000/svg"><clipPath id="p.0"><path d="m0 0l168.76378 0l0 168.76378l-168.76378 0l0 -168.76378z" clip-rule="nonzero"/></clipPath><g clip-path="url(#p.0)"><path fill="#000000" fill-opacity="0.0" d="m0 0l168.76378 0l0 168.76378l-168.76378 0z" fill-rule="evenodd"/><path fill="#000000" fill-opacity="0.0" d="m36.569553 44.10532l89.60629 -34.89764" fill-rule="evenodd"/><path stroke="#000000" stroke-width="12.0" stroke-linejoin="round" stroke-linecap="butt" d="m36.569553 44.10532l89.60629 -34.89764" fill-rule="evenodd"/><path fill="#000000" fill-opacity="0.0" d="m126.16798 9.219492l0 114.74016" fill-rule="evenodd"/><path stroke="#000000" stroke-width="12.0" stroke-linejoin="round" stroke-linecap="butt" d="m126.16798 9.219492l0 114.74016" fill-rule="evenodd"/><path fill="#000000" d="m132.19507 8.977931l0 0c0 3.2006426 -2.594635 5.7952757 -5.795273 5.7952757l0 0c-1.5370026 0 -3.011055 -0.61057186 -4.0978775 -1.6973972c-1.0868225 -1.0868244 -1.6973953 -2.560876 -1.6973953 -4.0978785l0 0c0 -3.2006426 2.594635 -5.7952757 5.795273 -5.7952757l0 0c3.2006378 0 5.795273 2.594633 5.795273 5.7952757z" fill-rule="evenodd"/><path fill="#000000" d="m132.19507 125.35588l0 0c0 3.2006378 -2.594635 5.795273 -5.795273 5.795273l0 0c-1.5370026 0 -3.011055 -0.6105652 -4.0978775 -1.6973877c-1.0868225 -1.0868225 -1.6973953 -2.5608826 -1.6973953 -4.097885l0 0c0 -3.2006378 2.594635 -5.795273 5.795273 -5.795273l0 0c3.2006378 0 5.795273 2.594635 5.795273 5.795273z" fill-rule="evenodd"/><path fill="#000000" fill-opacity="0.0" d="m36.569553 101.147316l89.60629 -34.897644" fill-rule="evenodd"/><path stroke="#000000" stroke-width="12.0" stroke-linejoin="round" stroke-linecap="butt" d="m36.569553 101.147316l89.60629 -34.897644" fill-rule="evenodd"/><path fill="#000000" fill-opacity="0.0" d="m36.569553 160.0187l89.60629 -34.897644" fill-rule="evenodd"/><path stroke="#000000" stroke-width="12.0" stroke-linejoin="round" stroke-linecap="butt" d="m36.569553 160.0187l89.60629 -34.897644" fill-rule="evenodd"/></g></svg>