<svg version="1.1" viewBox="0.0 0.0 168.76377952755905 168.76377952755905" fill="none" stroke="none" stroke-linecap="square" stroke-miterlimit="10" xmlns:xlink="http://www.w3.org/1999/xlink" xmlns="http://www.w3.org/2000/svg"><clipPath id="p.0"><path d="m0 0l168.76378 0l0 168.76378l-168.76378 0l0 -168.76378z" clip-rule="nonzero"/></clipPath><g clip-path="url(#p.0)"><path fill="#000000" fill-opacity="0.0" d="m0 0l168.76378 0l0 168.76378l-168.76378 0z" fill-rule="evenodd"/><path fill="#434343" d="m22.648438 79.20837l0 0c1.5606289 -1.5606232 4.090906 -1.5606232 5.651535 0l47.419334 47.419334c0.7494354 0.74944305 1.1704712 1.7658997 1.1704712 2.82576c0 1.0598755 -0.42103577 2.0763397 -1.1704712 2.8257751l-19.828785 19.828781c-1.560627 1.5606232 -4.090904 1.5606232 -5.651531 0l-47.419334 -47.419334c-1.5606278 -1.5606308 -1.5606278 -4.090904 0 -5.651535z" fill-rule="evenodd"/><path fill="#434343" d="m165.94386 36.486515l0 0c1.5606232 1.560627 1.5606232 4.090904 0 5.651535l-109.97052 109.97052c-0.74943924 0.7494354 -1.7658997 1.1704712 -2.8257675 1.1704712c-1.0598679 0 -2.0763283 -0.42103577 -2.8257675 -1.1704712l-19.828781 -19.828781c-1.560627 -1.5606384 -1.560627 -4.090912 0 -5.651535l109.97052 -109.97052c1.5606232 -1.5606279 4.0908966 -1.5606279 5.651535 0z" fill-rule="evenodd"/></g></svg>