<svg version="1.1" viewBox="0.0 0.0 168.76377952755905 168.76377952755905" fill="none" stroke="none" stroke-linecap="square" stroke-miterlimit="10" xmlns:xlink="http://www.w3.org/1999/xlink" xmlns="http://www.w3.org/2000/svg"><clipPath id="p.0"><path d="m0 0l168.76378 0l0 168.76378l-168.76378 0l0 -168.76378z" clip-rule="nonzero"/></clipPath><g clip-path="url(#p.0)"><path fill="#000000" fill-opacity="0.0" d="m0 0l168.76378 0l0 168.76378l-168.76378 0z" fill-rule="evenodd"/><path fill="#ffffff" d="m37.942257 7.88189l92.88188 0l0 152.97636l-92.88188 0z" fill-rule="evenodd"/><path stroke="#000000" stroke-width="12.0" stroke-linejoin="round" stroke-linecap="butt" d="m37.942257 7.88189l92.88188 0l0 152.97636l-92.88188 0z" fill-rule="evenodd"/><path fill="#000000" d="m69.120735 84.38189l0 0c0 -8.42778 6.832062 -15.259842 15.259842 -15.259842l0 0c4.047165 0 7.928566 1.607727 10.790337 4.4695053c2.8617783 2.8617783 4.4695053 6.7431717 4.4695053 10.790337l0 0c0 8.42778 -6.832062 15.259842 -15.259842 15.259842l0 0c-8.42778 0 -15.259842 -6.832062 -15.259842 -15.259842z" fill-rule="evenodd"/></g></svg>