<svg version="1.1" viewBox="0.0 0.0 168.76377952755905 168.76377952755905" fill="none" stroke="none" stroke-linecap="square" stroke-miterlimit="10" xmlns:xlink="http://www.w3.org/1999/xlink" xmlns="http://www.w3.org/2000/svg"><clipPath id="p.0"><path d="m0 0l168.76378 0l0 168.76378l-168.76378 0l0 -168.76378z" clip-rule="nonzero"/></clipPath><g clip-path="url(#p.0)"><path fill="#000000" fill-opacity="0.0" d="m0 0l168.76378 0l0 168.76378l-168.76378 0z" fill-rule="evenodd"/><path fill="#434343" d="m84.38058 118.13648l-52.645668 -51.228348l26.322834 0l0 -51.228344l52.64567 0l0 51.228344l26.32283 0z" fill-rule="evenodd"/><path fill="#434343" d="m7.1522384 129.75737l0 0c0 -1.6069336 1.302671 -2.9095993 2.909597 -2.9095993l148.63751 0c0.7716675 0 1.511734 0.30654144 2.0573883 0.85219574c0.5456543 0.5456543 0.85220337 1.2857208 0.85220337 2.0574036l0 20.417023c0 1.6069183 -1.3026733 2.9095917 -2.9095917 2.9095917l-148.63751 0c-1.606926 0 -2.909597 -1.3026733 -2.909597 -2.9095917z" fill-rule="evenodd"/></g></svg>