<svg version="1.1" viewBox="0.0 0.0 168.76377952755905 168.76377952755905" fill="none" stroke="none" stroke-linecap="square" stroke-miterlimit="10" xmlns:xlink="http://www.w3.org/1999/xlink" xmlns="http://www.w3.org/2000/svg"><clipPath id="p.0"><path d="m0 0l168.76378 0l0 168.76378l-168.76378 0l0 -168.76378z" clip-rule="nonzero"/></clipPath><g clip-path="url(#p.0)"><path fill="#000000" fill-opacity="0.0" d="m0 0l168.76378 0l0 168.76378l-168.76378 0z" fill-rule="evenodd"/><path fill="#000000" d="m66.53449 84.37686l0 0c0 -9.854149 7.988365 -17.842522 17.842514 -17.842522l0 0c4.732132 0 9.270447 1.879837 12.6165695 5.22596c3.3461227 3.346115 5.225952 7.88443 5.225952 12.616562l0 0c0 9.8541565 -7.988365 17.842522 -17.842522 17.842522l0 0c-9.854149 0 -17.842514 -7.988365 -17.842514 -17.842522z" fill-rule="evenodd"/><path fill="#000000" d="m114.24745 84.3832l0 0c0 -9.854149 7.988373 -17.842522 17.84253 -17.842522l0 0c4.7321167 0 9.2704315 1.879837 12.616562 5.225952c3.346115 3.3461227 5.225952 7.8844376 5.225952 12.6165695l0 0c0 9.854149 -7.988373 17.842522 -17.842514 17.842522l0 0c-9.8541565 0 -17.84253 -7.988373 -17.84253 -17.842522z" fill-rule="evenodd"/><path fill="#000000" d="m18.824146 84.38233l0 0c0 -9.854149 7.988369 -17.842514 17.842522 -17.842514l0 0c4.732128 0 9.270443 1.8798294 12.616566 5.225952c3.3461227 3.3461227 5.225952 7.8844376 5.225952 12.616562l0 0c0 9.8541565 -7.988369 17.842522 -17.842518 17.842522l0 0c-9.854153 0 -17.842522 -7.988365 -17.842522 -17.842522z" fill-rule="evenodd"/></g></svg>