<svg version="1.1" viewBox="0.0 0.0 168.76377952755905 168.76377952755905" fill="none" stroke="none" stroke-linecap="square" stroke-miterlimit="10" xmlns:xlink="http://www.w3.org/1999/xlink" xmlns="http://www.w3.org/2000/svg"><clipPath id="p.0"><path d="m0 0l168.76378 0l0 168.76378l-168.76378 0l0 -168.76378z" clip-rule="nonzero"/></clipPath><g clip-path="url(#p.0)"><path fill="#000000" fill-opacity="0.0" d="m0 0l168.76378 0l0 168.76378l-168.76378 0z" fill-rule="evenodd"/><path fill="#ffffff" d="m38.00525 6.2598424l92.81889 32.40679l0 123.78219l-92.81889 -32.4068z" fill-rule="evenodd"/><path stroke="#000000" stroke-width="12.0" stroke-linejoin="round" stroke-linecap="butt" d="m38.00525 6.2598424l92.81889 32.40679l0 123.78219l-92.81889 -32.4068z" fill-rule="evenodd"/><path fill="#000000" d="m65.782135 84.38058l0 0c0 -10.271629 8.3267975 -18.598427 18.598427 -18.598427l0 0c4.9326096 0 9.663193 1.9594727 13.15107 5.447357c3.4878845 3.487877 5.447357 8.21846 5.447357 13.15107l0 0c0 10.271629 -8.3267975 18.598427 -18.598427 18.598427l0 0c-10.271629 0 -18.598427 -8.3267975 -18.598427 -18.598427z" fill-rule="evenodd"/><path fill="#000000" fill-opacity="0.0" d="m84.424805 84.27559l0 -46.425194" fill-rule="evenodd"/><path stroke="#000000" stroke-width="8.0" stroke-linejoin="round" stroke-linecap="butt" d="m84.424805 84.27559l0 -46.425194" fill-rule="evenodd"/></g></svg>