<svg version="1.1" viewBox="0.0 0.0 168.76377952755905 168.76377952755905" fill="none" stroke="none" stroke-linecap="square" stroke-miterlimit="10" xmlns:xlink="http://www.w3.org/1999/xlink" xmlns="http://www.w3.org/2000/svg">
  <clipPath id="p.0">
    <path d="m0 0l168.76378 0l0 168.76378l-168.76378 0l0 -168.76378z" clip-rule="nonzero"/>
  </clipPath>
  <g clip-path="url(#p.0)">
    <path fill="#000000" fill-opacity="0.0" d="m0 0l168.76378 0l0 168.76378l-168.76378 0z" fill-rule="evenodd"/>
    <path fill="#ffffff" d="m-0.15352993 28.026808l0 0c0 -15.562855 12.616187 -28.17904 28.17904 -28.17904l112.71278 0l0 0c7.4735413 0 14.640991 2.968855 19.925583 8.25345c5.284607 5.2845955 8.253464 12.452045 8.253464 19.92559l0 112.71278c0 15.562851 -12.616196 28.179047 -28.179047 28.179047l-112.71278 0c-15.562854 0 -28.17904 -12.616196 -28.17904 -28.179047z" fill-rule="evenodd"/>
    <path fill="#000000" d="m158.34123 6.1469836l4.2519684 4.251969l-152.18898 152.18896l-4.2519684 -4.2519684z" fill-rule="evenodd"/>
    <path fill="#000000" d="m0.0026750655 116.35117l116.32184 -116.35117l8.591545 0l-124.91338 124.94488z" fill-rule="evenodd"/>
    <path fill="#000000" d="m0.0026750655 68.55984l68.53167 -68.55984l8.098251 0l-76.62992 76.661415z" fill-rule="evenodd"/>
    <path fill="#000000" d="m168.76378 52.419647l-116.31483 116.34413l-8.693047 0l125.00787 -125.03937z" fill-rule="evenodd"/>
    <path fill="#000000" d="m168.91864 99.88786l-68.84778 68.875916l-8.191597 0l77.039375 -77.07086z" fill-rule="evenodd"/>
  </g>
</svg>