<svg version="1.1" viewBox="0.0 0.0 168.76377952755905 168.76377952755905" fill="none" stroke="none" stroke-linecap="square" stroke-miterlimit="10" xmlns:xlink="http://www.w3.org/1999/xlink" xmlns="http://www.w3.org/2000/svg"><clipPath id="p.0"><path d="m0 0l168.76378 0l0 168.76378l-168.76378 0l0 -168.76378z" clip-rule="nonzero"/></clipPath><g clip-path="url(#p.0)"><path fill="#000000" fill-opacity="0.0" d="m0 0l168.76378 0l0 168.76378l-168.76378 0z" fill-rule="evenodd"/><path fill="#000000" fill-opacity="0.0" d="m51.374012 123.614174l0 0c0 -18.229744 14.778126 -33.007874 33.007877 -33.007874l0 0c8.754227 0 17.14991 3.4776077 23.340088 9.667778c6.190178 6.190178 9.667786 14.585861 9.667786 23.340096l0 0c0 18.229744 -14.77813 33.007866 -33.007874 33.007866l0 0c-18.229752 0 -33.007877 -14.778122 -33.007877 -33.007866z" fill-rule="evenodd"/><path fill="#000000" fill-opacity="0.0" d="m84.38058 123.62467l0 -111.49606" fill-rule="evenodd"/><path stroke="#000000" stroke-width="12.0" stroke-linejoin="round" stroke-linecap="butt" d="m84.38058 123.62467l0 -111.49606" fill-rule="evenodd"/><path fill="#000000" fill-opacity="0.0" d="m51.374012 123.614174l66.01575 0" fill-rule="evenodd"/><path stroke="#000000" stroke-width="12.0" stroke-linejoin="round" stroke-linecap="butt" d="m51.374012 123.614174l66.01575 0" fill-rule="evenodd"/></g></svg>