<svg version="1.1" viewBox="0.0 0.0 168.76377952755905 168.76377952755905" fill="none" stroke="none" stroke-linecap="square" stroke-miterlimit="10" xmlns:xlink="http://www.w3.org/1999/xlink" xmlns="http://www.w3.org/2000/svg"><clipPath id="p.0"><path d="m0 0l168.76378 0l0 168.76378l-168.76378 0l0 -168.76378z" clip-rule="nonzero"/></clipPath><g clip-path="url(#p.0)"><path fill="#000000" fill-opacity="0.0" d="m0 0l168.76378 0l0 168.76378l-168.76378 0z" fill-rule="evenodd"/><path fill="#000000" d="m48.070972 83.154854l0 0c0 -25.152874 25.227169 -45.543304 56.346455 -45.543304c31.119286 0 56.34646 20.39043 56.34646 45.543304l0 0c-5.5558167 -21.5761 -29.080338 -37.04037 -56.34646 -37.04037c-27.26612 0 -50.79063 15.464272 -56.346455 37.04037z" fill-rule="evenodd"/><path stroke="#000000" stroke-width="1.0" stroke-linejoin="round" stroke-linecap="butt" d="m48.070972 83.154854l0 0c0 -25.152874 25.227169 -45.543304 56.346455 -45.543304c31.119286 0 56.34646 20.39043 56.34646 45.543304l0 0c-5.5558167 -21.5761 -29.080338 -37.04037 -56.34646 -37.04037c-27.26612 0 -50.79063 15.464272 -56.346455 37.04037z" fill-rule="evenodd"/><path fill="#000000" d="m120.69302 85.608925l0 0c0 25.15287 -25.227173 45.543312 -56.34646 45.543312c-31.11929 0 -56.34646 -20.390442 -56.34646 -45.543312l0 0c5.5558214 21.576103 29.080338 37.040367 56.34646 37.040367c27.26612 0 50.790634 -15.464264 56.34646 -37.040367z" fill-rule="evenodd"/><path stroke="#000000" stroke-width="1.0" stroke-linejoin="round" stroke-linecap="butt" d="m120.69302 85.608925l0 0c0 25.15287 -25.227173 45.543312 -56.34646 45.543312c-31.11929 0 -56.34646 -20.390442 -56.34646 -45.543312l0 0c5.5558214 21.576103 29.080338 37.040367 56.34646 37.040367c27.26612 0 50.790634 -15.464264 56.34646 -37.040367z" fill-rule="evenodd"/></g></svg>