<svg version="1.1" viewBox="0.0 0.0 168.76377952755905 168.76377952755905" fill="none" stroke="none" stroke-linecap="square" stroke-miterlimit="10" xmlns:xlink="http://www.w3.org/1999/xlink" xmlns="http://www.w3.org/2000/svg"><clipPath id="p.0"><path d="m0 0l168.76378 0l0 168.76378l-168.76378 0l0 -168.76378z" clip-rule="nonzero"/></clipPath><g clip-path="url(#p.0)"><path fill="#000000" fill-opacity="0.0" d="m0 0l168.76378 0l0 168.76378l-168.76378 0z" fill-rule="evenodd"/><path fill="#000000" d="m7.8149605 61.610237l0 0c0 25.15287 20.178915 45.543304 45.070866 45.543304c24.891953 0 45.07087 -20.390434 45.07087 -45.543304l0 0c-4.4440384 21.576103 -23.261017 37.040367 -45.07087 37.040367c-21.809847 0 -40.62683 -15.464264 -45.070866 -37.040367z" fill-rule="evenodd"/><path stroke="#000000" stroke-width="1.0" stroke-linejoin="round" stroke-linecap="butt" d="m7.8149605 61.610237l0 0c0 25.15287 20.178915 45.543304 45.070866 45.543304c24.891953 0 45.07087 -20.390434 45.07087 -45.543304l0 0c-4.4440384 21.576103 -23.261017 37.040367 -45.07087 37.040367c-21.809847 0 -40.62683 -15.464264 -45.070866 -37.040367z" fill-rule="evenodd"/><path fill="#000000" fill-opacity="0.0" d="m160.94884 67.19579l-62.992126 0" fill-rule="evenodd"/><path stroke="#000000" stroke-width="12.0" stroke-linejoin="round" stroke-linecap="butt" d="m160.94884 67.19579l-62.992126 0" fill-rule="evenodd"/><path fill="#000000" d="m105.403984 65.80971l-8.377953 0l0 7.433075l8.377953 0z" fill-rule="evenodd"/></g></svg>