<svg version="1.1" viewBox="0.0 0.0 168.76377952755905 168.76377952755905" fill="none" stroke="none" stroke-linecap="square" stroke-miterlimit="10" xmlns:xlink="http://www.w3.org/1999/xlink" xmlns="http://www.w3.org/2000/svg"><clipPath id="p.0"><path d="m0 0l168.76378 0l0 168.76378l-168.76378 0l0 -168.76378z" clip-rule="nonzero"/></clipPath><g clip-path="url(#p.0)"><path fill="#000000" fill-opacity="0.0" d="m0 0l168.76378 0l0 168.76378l-168.76378 0z" fill-rule="evenodd"/><path fill="#000000" fill-opacity="0.0" d="m12.07874 84.37795l0 0c0 -39.929752 32.36946 -72.29921 72.29921 -72.29921l0 0c19.174942 0 37.56453 7.617217 51.12327 21.17595c13.558731 13.558735 21.17595 31.948322 21.17595 51.123264l0 0c0 39.929756 -32.36946 72.29922 -72.29922 72.29922l0 0c-39.929752 0 -72.29921 -32.36946 -72.29921 -72.29922z" fill-rule="evenodd"/><path stroke="#000000" stroke-width="12.0" stroke-linejoin="round" stroke-linecap="butt" d="m12.07874 84.37795l0 0c0 -39.929752 32.36946 -72.29921 72.29921 -72.29921l0 0c19.174942 0 37.56453 7.617217 51.12327 21.17595c13.558731 13.558735 21.17595 31.948322 21.17595 51.123264l0 0c0 39.929756 -32.36946 72.29922 -72.29922 72.29922l0 0c-39.929752 0 -72.29921 -32.36946 -72.29921 -72.29922z" fill-rule="evenodd"/><path fill="#000000" d="m63.5879 84.385826l0 0c0 -11.463173 9.29274 -20.755905 20.755905 -20.755905l0 0c5.504814 0 10.784157 2.1867752 14.676643 6.079262c3.8924866 3.8924866 6.079262 9.171837 6.079262 14.676643l0 0c0 11.463173 -9.292732 20.755905 -20.755905 20.755905l0 0c-11.463165 0 -20.755905 -9.292732 -20.755905 -20.755905z" fill-rule="evenodd"/><path stroke="#000000" stroke-width="12.0" stroke-linejoin="round" stroke-linecap="butt" d="m63.5879 84.385826l0 0c0 -11.463173 9.29274 -20.755905 20.755905 -20.755905l0 0c5.504814 0 10.784157 2.1867752 14.676643 6.079262c3.8924866 3.8924866 6.079262 9.171837 6.079262 14.676643l0 0c0 11.463173 -9.292732 20.755905 -20.755905 20.755905l0 0c-11.463165 0 -20.755905 -9.292732 -20.755905 -20.755905z" fill-rule="evenodd"/></g></svg>