<svg version="1.1" viewBox="0.0 0.0 831.6430446194225 311.4803149606299" fill="none" stroke="none" stroke-linecap="square" stroke-miterlimit="10" xmlns:xlink="http://www.w3.org/1999/xlink" xmlns="http://www.w3.org/2000/svg"><clipPath id="p.0"><path d="m0 0l831.64307 0l0 311.48032l-831.64307 0l0 -311.48032z" clip-rule="nonzero"/></clipPath><g clip-path="url(#p.0)"><path fill="#000000" fill-opacity="0.0" d="m0 0l831.64307 0l0 311.48032l-831.64307 0z" fill-rule="evenodd"/><path fill="#ffffff" d="m0 -0.55380577l831.65356 0l0 312.0315l-831.65356 0z" fill-rule="evenodd"/><path fill="#000000" fill-opacity="0.0" d="m252.2584 5.0367455l0 301.38583" fill-rule="evenodd"/><path stroke="#000000" stroke-width="4.0" stroke-linejoin="round" stroke-linecap="butt" d="m252.2584 5.0367455l0 301.38583" fill-rule="evenodd"/><path fill="#000000" fill-opacity="0.0" d="m383.92212 5.0367455l0 301.38583" fill-rule="evenodd"/><path stroke="#000000" stroke-width="3.0" stroke-linejoin="round" stroke-linecap="butt" d="m383.92212 5.0367455l0 301.38583" fill-rule="evenodd"/><path fill="#000000" fill-opacity="0.0" d="m515.5858 5.0367455l0 301.38583" fill-rule="evenodd"/><path stroke="#000000" stroke-width="4.0" stroke-linejoin="round" stroke-linecap="butt" d="m515.5858 5.0367455l0 301.38583" fill-rule="evenodd"/><path fill="#000000" fill-opacity="0.0" d="m581.41766 5.0367455l0 301.38583" fill-rule="evenodd"/><path stroke="#000000" stroke-width="1.0" stroke-linejoin="round" stroke-linecap="butt" stroke-dasharray="4.0,3.0" d="m581.41766 5.0367455l0 301.38583" fill-rule="evenodd"/><path fill="#000000" fill-opacity="0.0" d="m647.2495 5.0367455l0 301.38583" fill-rule="evenodd"/><path stroke="#000000" stroke-width="1.0" stroke-linejoin="round" stroke-linecap="butt" stroke-dasharray="4.0,3.0" d="m647.2495 5.0367455l0 301.38583" fill-rule="evenodd"/><path fill="#000000" fill-opacity="0.0" d="m713.08136 5.0367455l0 301.38583" fill-rule="evenodd"/><path stroke="#000000" stroke-width="1.0" stroke-linejoin="round" stroke-linecap="butt" stroke-dasharray="4.0,3.0" d="m713.08136 5.0367455l0 301.38583" fill-rule="evenodd"/><path fill="#000000" fill-opacity="0.0" d="m120.59471 5.0367455l0 301.38583" fill-rule="evenodd"/><path stroke="#000000" stroke-width="1.0" stroke-linejoin="round" stroke-linecap="butt" stroke-dasharray="4.0,3.0" d="m120.59471 5.0367455l0 301.38583" fill-rule="evenodd"/><path fill="#000000" fill-opacity="0.0" d="m186.42656 5.0367455l0 301.38583" fill-rule="evenodd"/><path stroke="#000000" stroke-width="1.0" stroke-linejoin="round" stroke-linecap="butt" stroke-dasharray="4.0,3.0" d="m186.42656 5.0367455l0 301.38583" fill-rule="evenodd"/><path fill="#000000" fill-opacity="0.0" d="m319.3569 306.43045l0 -146.96063l58.17325 0l0 146.96063z" fill-rule="evenodd"/><path fill="#000000" d="m351.71753 295.99295l-0.25 -2.859375q1.71875 -0.203125 2.828125 -0.9375q1.09375 -0.75 1.78125 -2.3125q0.671875 -1.5625 0.671875 -3.515625q0 -1.734375 -0.515625 -3.0625q-0.515625 -1.328125 -1.40625 -1.96875q-0.90625 -0.65625 -1.96875 -0.65625q-1.078125 0 -1.875 0.625q-0.8125 0.625 -1.359375 2.0625q-0.359375 0.921875 -1.109375 4.078125q-0.765625 3.15625 -1.4375 4.421875q-0.859375 1.640625 -2.125 2.453125q-1.28125 0.796875 -2.859375 0.796875q-1.734375 0 -3.234375 -0.984375q-1.515625 -0.984375 -2.296875 -2.875q-0.78125 -1.890625 -0.78125 -4.203125q0 -2.546875 0.828125 -4.484375q0.8125 -1.953125 2.40625 -3.0q1.59375 -1.046875 3.609375 -1.125l0.21875 2.90625q-2.171875 0.234375 -3.28125 1.59375q-1.109375 1.34375 -1.109375 3.984375q0 2.75 1.015625 4.015625q1.0 1.25 2.421875 1.25q1.234375 0 2.03125 -0.890625q0.796875 -0.875 1.640625 -4.5625q0.828125 -3.703125 1.453125 -5.078125q0.921875 -2.0 2.34375 -2.953125q1.40625 -0.953125 3.25 -0.953125q1.828125 0 3.453125 1.046875q1.609375 1.046875 2.515625 3.015625q0.890625 1.953125 0.890625 4.40625q0 3.109375 -0.90625 5.21875q-0.90625 2.09375 -2.71875 3.296875q-1.828125 1.1875 -4.125 1.25zm7.359375 -32.890625l-2.4375 0q2.8125 1.9375 2.8125 5.265625q0 1.46875 -0.5625 2.75q-0.5625 1.265625 -1.40625 1.890625q-0.859375 0.609375 -2.09375 0.859375q-0.828125 0.171875 -2.625 0.171875l-10.28125 0l0 -2.8125l9.203125 0q2.203125 0 2.96875 -0.171875q1.109375 -0.265625 1.75 -1.125q0.625 -0.859375 0.625 -2.125q0 -1.265625 -0.640625 -2.375q-0.65625 -1.109375 -1.765625 -1.5625q-1.125 -0.46875 -3.25 -0.46875l-8.890625 0l0 -2.8125l16.59375 0l0 2.515625zm6.359375 -6.921875l-22.953125 0l0 -2.5625l2.15625 0q-1.265625 -0.90625 -1.890625 -2.046875q-0.640625 -1.140625 -0.640625 -2.765625q0 -2.125 1.09375 -3.75q1.09375 -1.625 3.09375 -2.453125q1.984375 -0.828125 4.359375 -0.828125q2.546875 0 4.59375 0.921875q2.03125 0.90625 3.125 2.65625q1.078125 1.734375 1.078125 3.65625q0 1.40625 -0.59375 2.53125q-0.59375 1.109375 -1.5 1.828125l8.078125 0l0 2.8125zm-14.5625 -2.546875q3.203125 0 4.734375 -1.296875q1.53125 -1.296875 1.53125 -3.140625q0 -1.875 -1.578125 -3.203125q-1.59375 -1.34375 -4.921875 -1.34375q-3.171875 0 -4.75 1.3125q-1.578125 1.296875 -1.578125 3.109375q0 1.796875 1.6875 3.1875q1.671875 1.375 4.875 1.375zm14.5625 -15.25l-22.953125 0l0 -2.5625l2.15625 0q-1.265625 -0.90625 -1.890625 -2.046875q-0.640625 -1.140625 -0.640625 -2.765625q0 -2.125 1.09375 -3.75q1.09375 -1.625 3.09375 -2.453125q1.984375 -0.828125 4.359375 -0.828125q2.546875 0 4.59375 0.921875q2.03125 0.90625 3.125 2.65625q1.078125 1.734375 1.078125 3.65625q0 1.40625 -0.59375 2.53125q-0.59375 1.109375 -1.5 1.828125l8.078125 0l0 2.8125zm-14.5625 -2.546875q3.203125 0 4.734375 -1.296875q1.53125 -1.296875 1.53125 -3.140625q0 -1.875 -1.578125 -3.203125q-1.59375 -1.34375 -4.921875 -1.34375q-3.171875 0 -4.75 1.3125q-1.578125 1.296875 -1.578125 3.109375q0 1.796875 1.6875 3.1875q1.671875 1.375 4.875 1.375zm-0.09375 -14.203125q-4.609375 0 -6.828125 -2.5625q-1.84375 -2.140625 -1.84375 -5.21875q0 -3.421875 2.25 -5.59375q2.234375 -2.171875 6.1875 -2.171875q3.203125 0 5.046875 0.96875q1.828125 0.953125 2.84375 2.796875q1.015625 1.828125 1.015625 4.0q0 3.484375 -2.234375 5.640625q-2.234375 2.140625 -6.4375 2.140625zm0 -2.890625q3.1875 0 4.78125 -1.390625q1.578125 -1.390625 1.578125 -3.5q0 -2.09375 -1.59375 -3.484375q-1.59375 -1.390625 -4.859375 -1.390625q-3.078125 0 -4.65625 1.40625q-1.59375 1.390625 -1.59375 3.46875q0 2.109375 1.578125 3.5q1.578125 1.390625 4.765625 1.390625zm8.296875 -15.921875l-16.59375 0l0 -2.53125l2.515625 0q-1.765625 -0.96875 -2.328125 -1.78125q-0.5625 -0.828125 -0.5625 -1.8125q0 -1.421875 0.90625 -2.890625l2.609375 0.96875q-0.609375 1.03125 -0.609375 2.0625q0 0.921875 0.5625 1.65625q0.546875 0.734375 1.53125 1.046875q1.5 0.46875 3.28125 0.46875l8.6875 0l0 2.8125zm-2.515625 -16.828125l2.484375 -0.40625q0.25 1.1875 0.25 2.125q0 1.53125 -0.484375 2.375q-0.484375 0.84375 -1.265625 1.1875q-0.796875 0.34375 -3.328125 0.34375l-9.546875 0l0 2.0625l-2.1875 0l0 -2.0625l-4.109375 0l-1.6875 -2.796875l5.796875 0l0 -2.828125l2.1875 0l0 2.828125l9.703125 0q1.203125 0 1.546875 -0.140625q0.34375 -0.15625 0.546875 -0.484375q0.203125 -0.34375 0.203125 -0.96875q0 -0.46875 -0.109375 -1.234375z" fill-rule="nonzero"/><path fill="#000000" fill-opacity="0.0" d="m390.7278 306.43045l0 -146.96063l58.173218 0l0 146.96063z" fill-rule="evenodd"/><path fill="#000000" d="m423.08844 295.99295l-0.25 -2.859375q1.71875 -0.203125 2.828125 -0.9375q1.09375 -0.75 1.78125 -2.3125q0.671875 -1.5625 0.671875 -3.515625q0 -1.734375 -0.515625 -3.0625q-0.515625 -1.328125 -1.40625 -1.96875q-0.90625 -0.65625 -1.96875 -0.65625q-1.078125 0 -1.875 0.625q-0.8125 0.625 -1.359375 2.0625q-0.359375 0.921875 -1.109375 4.078125q-0.765625 3.15625 -1.4375 4.421875q-0.859375 1.640625 -2.125 2.453125q-1.28125 0.796875 -2.859375 0.796875q-1.734375 0 -3.234375 -0.984375q-1.515625 -0.984375 -2.296875 -2.875q-0.78125 -1.890625 -0.78125 -4.203125q0 -2.546875 0.828125 -4.484375q0.8125 -1.953125 2.40625 -3.0q1.59375 -1.046875 3.609375 -1.125l0.21875 2.90625q-2.171875 0.234375 -3.28125 1.59375q-1.109375 1.34375 -1.109375 3.984375q0 2.75 1.015625 4.015625q1.0 1.25 2.421875 1.25q1.234375 0 2.03125 -0.890625q0.796875 -0.875 1.640625 -4.5625q0.828125 -3.703125 1.453125 -5.078125q0.921875 -2.0 2.34375 -2.953125q1.40625 -0.953125 3.25 -0.953125q1.828125 0 3.453125 1.046875q1.609375 1.046875 2.515625 3.015625q0.890625 1.953125 0.890625 4.40625q0 3.109375 -0.90625 5.21875q-0.90625 2.09375 -2.71875 3.296875q-1.828125 1.1875 -4.125 1.25zm7.359375 -32.890625l-2.4375 0q2.8125 1.9375 2.8125 5.265625q0 1.46875 -0.5625 2.75q-0.5625 1.265625 -1.40625 1.890625q-0.859375 0.609375 -2.09375 0.859375q-0.828125 0.171875 -2.625 0.171875l-10.28125 0l0 -2.8125l9.203125 0q2.203125 0 2.96875 -0.171875q1.109375 -0.265625 1.75 -1.125q0.625 -0.859375 0.625 -2.125q0 -1.265625 -0.640625 -2.375q-0.65625 -1.109375 -1.765625 -1.5625q-1.125 -0.46875 -3.25 -0.46875l-8.890625 0l0 -2.8125l16.59375 0l0 2.515625zm6.359375 -6.921875l-22.953125 0l0 -2.5625l2.15625 0q-1.265625 -0.90625 -1.890625 -2.046875q-0.640625 -1.140625 -0.640625 -2.765625q0 -2.125 1.09375 -3.75q1.09375 -1.625 3.09375 -2.453125q1.984375 -0.828125 4.359375 -0.828125q2.546875 0 4.59375 0.921875q2.03125 0.90625 3.125 2.65625q1.078125 1.734375 1.078125 3.65625q0 1.40625 -0.59375 2.53125q-0.59375 1.109375 -1.5 1.828125l8.078125 0l0 2.8125zm-14.5625 -2.546875q3.203125 0 4.734375 -1.296875q1.53125 -1.296875 1.53125 -3.140625q0 -1.875 -1.578125 -3.203125q-1.59375 -1.34375 -4.921875 -1.34375q-3.171875 0 -4.75 1.3125q-1.578125 1.296875 -1.578125 3.109375q0 1.796875 1.6875 3.1875q1.671875 1.375 4.875 1.375zm14.5625 -15.25l-22.953125 0l0 -2.5625l2.15625 0q-1.265625 -0.90625 -1.890625 -2.046875q-0.640625 -1.140625 -0.640625 -2.765625q0 -2.125 1.09375 -3.75q1.09375 -1.625 3.09375 -2.453125q1.984375 -0.828125 4.359375 -0.828125q2.546875 0 4.59375 0.921875q2.03125 0.90625 3.125 2.65625q1.078125 1.734375 1.078125 3.65625q0 1.40625 -0.59375 2.53125q-0.59375 1.109375 -1.5 1.828125l8.078125 0l0 2.8125zm-14.5625 -2.546875q3.203125 0 4.734375 -1.296875q1.53125 -1.296875 1.53125 -3.140625q0 -1.875 -1.578125 -3.203125q-1.59375 -1.34375 -4.921875 -1.34375q-3.171875 0 -4.75 1.3125q-1.578125 1.296875 -1.578125 3.109375q0 1.796875 1.6875 3.1875q1.671875 1.375 4.875 1.375zm-0.09375 -14.203125q-4.609375 0 -6.828125 -2.5625q-1.84375 -2.140625 -1.84375 -5.21875q0 -3.421875 2.25 -5.59375q2.234375 -2.171875 6.1875 -2.171875q3.203125 0 5.046875 0.96875q1.828125 0.953125 2.84375 2.796875q1.015625 1.828125 1.015625 4.0q0 3.484375 -2.234375 5.640625q-2.234375 2.140625 -6.4375 2.140625zm0 -2.890625q3.1875 0 4.78125 -1.390625q1.578125 -1.390625 1.578125 -3.5q0 -2.09375 -1.59375 -3.484375q-1.59375 -1.390625 -4.859375 -1.390625q-3.078125 0 -4.65625 1.40625q-1.59375 1.390625 -1.59375 3.46875q0 2.109375 1.578125 3.5q1.578125 1.390625 4.765625 1.390625zm8.296875 -15.921875l-16.59375 0l0 -2.53125l2.515625 0q-1.765625 -0.96875 -2.328125 -1.78125q-0.5625 -0.828125 -0.5625 -1.8125q0 -1.421875 0.90625 -2.890625l2.609375 0.96875q-0.609375 1.03125 -0.609375 2.0625q0 0.921875 0.5625 1.65625q0.546875 0.734375 1.53125 1.046875q1.5 0.46875 3.28125 0.46875l8.6875 0l0 2.8125zm-2.515625 -16.828125l2.484375 -0.40625q0.25 1.1875 0.25 2.125q0 1.53125 -0.484375 2.375q-0.484375 0.84375 -1.265625 1.1875q-0.796875 0.34375 -3.328125 0.34375l-9.546875 0l0 2.0625l-2.1875 0l0 -2.0625l-4.109375 0l-1.6875 -2.796875l5.796875 0l0 -2.828125l2.1875 0l0 2.828125l9.703125 0q1.203125 0 1.546875 -0.140625q0.34375 -0.15625 0.546875 -0.484375q0.203125 -0.34375 0.203125 -0.96875q0 -0.46875 -0.109375 -1.234375z" fill-rule="nonzero"/><path fill="#000000" fill-opacity="0.0" d="m450.60535 306.43045l0 -146.96063l58.173218 0l0 146.96063z" fill-rule="evenodd"/><path fill="#000000" d="m490.32535 295.0867l-22.90625 0l0 -3.03125l20.203125 0l0 -11.28125l2.703125 0l0 14.3125zm-5.34375 -28.921875l0.359375 -2.90625q2.546875 0.6875 3.953125 2.546875q1.40625 1.859375 1.40625 4.75q0 3.640625 -2.234375 5.78125q-2.25 2.125 -6.296875 2.125q-4.1875 0 -6.5 -2.15625q-2.3125 -2.15625 -2.3125 -5.59375q0 -3.328125 2.265625 -5.4375q2.265625 -2.109375 6.375 -2.109375q0.25 0 0.75 0.015625l0 12.375q2.734375 -0.15625 4.1875 -1.546875q1.453125 -1.390625 1.453125 -3.46875q0 -1.546875 -0.8125 -2.640625q-0.8125 -1.09375 -2.59375 -1.734375zm-4.546875 9.234375l0 -9.265625q-2.09375 0.1875 -3.140625 1.0625q-1.625 1.34375 -1.625 3.484375q0 1.9375 1.296875 3.265625q1.296875 1.3125 3.46875 1.453125zm11.265625 -15.15625l0.40625 -2.734375q1.265625 -0.171875 1.84375 -0.953125q0.78125 -1.046875 0.78125 -2.859375q0 -1.953125 -0.78125 -3.015625q-0.78125 -1.0625 -2.1875 -1.4375q-0.859375 -0.21875 -3.609375 -0.203125q2.171875 1.84375 2.171875 4.59375q0 3.421875 -2.46875 5.296875q-2.46875 1.875 -5.921875 1.875q-2.375 0 -4.375 -0.859375q-2.015625 -0.859375 -3.109375 -2.484375q-1.09375 -1.640625 -1.09375 -3.84375q0 -2.9375 2.375 -4.84375l-2.0 0l0 -2.59375l14.34375 0q3.875 0 5.484375 0.796875q1.625 0.78125 2.5625 2.5q0.9375 1.703125 0.9375 4.203125q0 2.96875 -1.34375 4.796875q-1.328125 1.828125 -4.015625 1.765625zm-9.96875 -2.328125q3.265625 0 4.765625 -1.296875q1.5 -1.296875 1.5 -3.25q0 -1.9375 -1.484375 -3.25q-1.5 -1.3125 -4.6875 -1.3125q-3.046875 0 -4.59375 1.359375q-1.546875 1.34375 -1.546875 3.25q0 1.875 1.53125 3.1875q1.515625 1.3125 4.515625 1.3125z" fill-rule="nonzero"/><path fill="#000000" fill-opacity="0.0" d="m519.41455 306.43045l0 -146.96063l58.173218 0l0 146.96063z" fill-rule="evenodd"/><path fill="#000000" d="m559.1345 295.0867l-22.90625 0l0 -8.59375q0 -2.625 0.703125 -4.203125q0.6875 -1.59375 2.140625 -2.484375q1.4375 -0.90625 3.015625 -0.90625q1.46875 0 2.765625 0.796875q1.296875 0.796875 2.09375 2.40625q0.609375 -2.078125 2.078125 -3.1875q1.46875 -1.125 3.46875 -1.125q1.609375 0 3.0 0.6875q1.375 0.671875 2.125 1.671875q0.75 1.0 1.140625 2.515625q0.375 1.5 0.375 3.6875l0 8.734375zm-13.28125 -3.03125l0 -4.953125q0 -2.015625 -0.265625 -2.890625q-0.34375 -1.15625 -1.140625 -1.734375q-0.796875 -0.59375 -2.0 -0.59375q-1.140625 0 -2.0 0.546875q-0.875 0.546875 -1.1875 1.5625q-0.328125 1.015625 -0.328125 3.484375l0 4.578125l6.921875 0zm10.578125 0l0 -5.703125q0 -1.46875 -0.109375 -2.0625q-0.1875 -1.046875 -0.625 -1.75q-0.4375 -0.703125 -1.265625 -1.15625q-0.84375 -0.453125 -1.9375 -0.453125q-1.28125 0 -2.21875 0.65625q-0.953125 0.65625 -1.328125 1.828125q-0.390625 1.15625 -0.390625 3.34375l0 5.296875l7.875 0zm-5.59375 -17.03125q-4.609375 0 -6.828125 -2.5625q-1.84375 -2.140625 -1.84375 -5.21875q0 -3.421875 2.25 -5.59375q2.234375 -2.171875 6.1875 -2.171875q3.203125 0 5.046875 0.96875q1.828125 0.953125 2.84375 2.796875q1.015625 1.828125 1.015625 4.0q0 3.484375 -2.234375 5.640625q-2.234375 2.140625 -6.4375 2.140625zm0 -2.890625q3.1875 0 4.78125 -1.390625q1.578125 -1.390625 1.578125 -3.5q0 -2.09375 -1.59375 -3.484375q-1.59375 -1.390625 -4.859375 -1.390625q-3.078125 0 -4.65625 1.40625q-1.59375 1.390625 -1.59375 3.46875q0 2.109375 1.578125 3.5q1.578125 1.390625 4.765625 1.390625zm8.296875 -26.71875l-2.09375 0q2.46875 1.578125 2.46875 4.640625q0 1.984375 -1.09375 3.65625q-1.09375 1.65625 -3.046875 2.578125q-1.96875 0.90625 -4.515625 0.90625q-2.484375 0 -4.5 -0.828125q-2.03125 -0.828125 -3.109375 -2.484375q-1.078125 -1.65625 -1.078125 -3.703125q0 -1.5 0.640625 -2.671875q0.625 -1.171875 1.640625 -1.90625l-8.21875 0l0 -2.796875l22.90625 0l0 2.609375zm-8.28125 8.890625q3.1875 0 4.765625 -1.34375q1.578125 -1.34375 1.578125 -3.171875q0 -1.84375 -1.5 -3.125q-1.515625 -1.296875 -4.609375 -1.296875q-3.40625 0 -5.0 1.3125q-1.59375 1.3125 -1.59375 3.234375q0 1.875 1.53125 3.140625q1.53125 1.25 4.828125 1.25zm14.671875 -15.796875l-2.640625 0.3125q0.25 -0.921875 0.25 -1.609375q0 -0.9375 -0.3125 -1.5q-0.3125 -0.5625 -0.875 -0.921875q-0.421875 -0.265625 -2.09375 -0.859375q-0.234375 -0.078125 -0.6875 -0.25l-16.625 6.296875l0 -3.03125l9.609375 -3.453125q1.828125 -0.671875 3.84375 -1.203125q-1.9375 -0.484375 -3.78125 -1.15625l-9.671875 -3.546875l0 -2.8125l16.875 6.3125q2.734375 1.015625 3.765625 1.578125q1.390625 0.75 2.03125 1.71875q0.65625 0.96875 0.65625 2.3125q0 0.8125 -0.34375 1.8125z" fill-rule="nonzero"/><path fill="#000000" fill-opacity="0.0" d="m585.2466 306.43045l0 -146.96063l58.173218 0l0 146.96063z" fill-rule="evenodd"/><path fill="#000000" d="m624.96655 297.47733l-22.90625 -8.796875l0 -3.265625l22.90625 -9.375l0 3.453125l-6.9375 2.671875l0 9.578125l6.9375 2.515625l0 3.21875zm-9.40625 -6.609375l0 -7.765625l-6.34375 2.390625q-2.890625 1.09375 -4.75 1.625q2.203125 0.4375 4.375 1.234375l6.71875 2.515625zm9.40625 -16.859375l-16.59375 0l0 -2.53125l2.515625 0q-1.765625 -0.96875 -2.328125 -1.78125q-0.5625 -0.828125 -0.5625 -1.8125q0 -1.421875 0.90625 -2.890625l2.609375 0.96875q-0.609375 1.03125 -0.609375 2.0625q0 0.921875 0.5625 1.65625q0.546875 0.734375 1.53125 1.046875q1.5 0.46875 3.28125 0.46875l8.6875 0l0 2.8125zm0 -10.6875l-16.59375 0l0 -2.515625l2.328125 0q-1.21875 -0.78125 -1.953125 -2.078125q-0.75 -1.296875 -0.75 -2.953125q0 -1.84375 0.765625 -3.015625q0.765625 -1.1875 2.140625 -1.671875q-2.90625 -1.96875 -2.90625 -5.125q0 -2.46875 1.375 -3.796875q1.359375 -1.328125 4.203125 -1.328125l11.390625 0l0 2.796875l-10.453125 0q-1.6875 0 -2.421875 0.28125q-0.75 0.265625 -1.203125 0.984375q-0.453125 0.71875 -0.453125 1.6875q0 1.75 1.171875 2.90625q1.15625 1.15625 3.71875 1.15625l9.640625 0l0 2.8125l-10.78125 0q-1.875 0 -2.8125 0.6875q-0.9375 0.6875 -0.9375 2.25q0 1.1875 0.625 2.203125q0.625 1.0 1.828125 1.453125q1.203125 0.453125 3.46875 0.453125l8.609375 0l0 2.8125z" fill-rule="nonzero"/><path fill="#000000" fill-opacity="0.0" d="m651.07806 306.43045l0 -146.96063l58.173218 0l0 146.96063z" fill-rule="evenodd"/><path fill="#000000" d="m690.7981 294.86795l-22.90625 0l0 -3.03125l9.40625 0l0 -11.90625l-9.40625 0l0 -3.03125l22.90625 0l0 3.03125l-10.796875 0l0 11.90625l10.796875 0l0 3.03125zm-5.34375 -34.015625l0.359375 -2.90625q2.546875 0.6875 3.953125 2.546875q1.40625 1.859375 1.40625 4.75q0 3.640625 -2.234375 5.78125q-2.25 2.125 -6.296875 2.125q-4.1875 0 -6.5 -2.15625q-2.3125 -2.15625 -2.3125 -5.59375q0 -3.328125 2.265625 -5.4375q2.265625 -2.109375 6.375 -2.109375q0.25 0 0.75 0.015625l0 12.375q2.734375 -0.15625 4.1875 -1.546875q1.453125 -1.390625 1.453125 -3.46875q0 -1.546875 -0.8125 -2.640625q-0.8125 -1.09375 -2.59375 -1.734375zm-4.546875 9.234375l0 -9.265625q-2.09375 0.1875 -3.140625 1.0625q-1.625 1.34375 -1.625 3.484375q0 1.9375 1.296875 3.265625q1.296875 1.3125 3.46875 1.453125zm7.84375 -26.5q1.328125 1.5625 1.875 3.015625q0.546875 1.4375 0.546875 3.09375q0 2.734375 -1.328125 4.203125q-1.34375 1.46875 -3.421875 1.46875q-1.21875 0 -2.21875 -0.546875q-1.015625 -0.5625 -1.625 -1.453125q-0.609375 -0.90625 -0.921875 -2.03125q-0.21875 -0.828125 -0.421875 -2.5q-0.40625 -3.40625 -0.96875 -5.015625q-0.578125 -0.015625 -0.734375 -0.015625q-1.71875 0 -2.421875 0.796875q-0.953125 1.078125 -0.953125 3.203125q0 1.984375 0.703125 2.9375q0.6875 0.9375 2.453125 1.390625l-0.375 2.75q-1.765625 -0.375 -2.84375 -1.234375q-1.09375 -0.859375 -1.671875 -2.484375q-0.59375 -1.625 -0.59375 -3.765625q0 -2.125 0.5 -3.453125q0.5 -1.328125 1.265625 -1.953125q0.75 -0.625 1.90625 -0.875q0.71875 -0.140625 2.59375 -0.140625l3.75 0q3.921875 0 4.96875 -0.171875q1.03125 -0.1875 1.984375 -0.71875l0 2.9375q-0.875 0.4375 -2.046875 0.5625zm-6.28125 0.234375q0.625 1.53125 1.0625 4.59375q0.25 1.734375 0.5625 2.453125q0.3125 0.71875 0.921875 1.109375q0.59375 0.390625 1.328125 0.390625q1.125 0 1.875 -0.84375q0.75 -0.859375 0.75 -2.5q0 -1.625 -0.703125 -2.890625q-0.71875 -1.265625 -1.953125 -1.859375q-0.953125 -0.453125 -2.8125 -0.453125l-1.03125 0zm8.328125 -17.96875l-2.09375 0q2.46875 1.578125 2.46875 4.640625q0 1.984375 -1.09375 3.65625q-1.09375 1.65625 -3.046875 2.578125q-1.96875 0.90625 -4.515625 0.90625q-2.484375 0 -4.5 -0.828125q-2.03125 -0.828125 -3.109375 -2.484375q-1.078125 -1.65625 -1.078125 -3.703125q0 -1.5 0.640625 -2.671875q0.625 -1.171875 1.640625 -1.90625l-8.21875 0l0 -2.796875l22.90625 0l0 2.609375zm-8.28125 8.890625q3.1875 0 4.765625 -1.34375q1.578125 -1.34375 1.578125 -3.171875q0 -1.84375 -1.5 -3.125q-1.515625 -1.296875 -4.609375 -1.296875q-3.40625 0 -5.0 1.3125q-1.59375 1.3125 -1.59375 3.234375q0 1.875 1.53125 3.140625q1.53125 1.25 4.828125 1.25z" fill-rule="nonzero"/><path fill="#000000" fill-opacity="0.0" d="m124.42519 306.43045l0 -146.96063l58.173225 0l0 146.96063z" fill-rule="evenodd"/><path fill="#000000" d="m164.1452 297.47733l-22.90625 -8.796875l0 -3.265625l22.90625 -9.375l0 3.453125l-6.9375 2.671875l0 9.578125l6.9375 2.515625l0 3.21875zm-9.40625 -6.609375l0 -7.765625l-6.34375 2.390625q-2.890625 1.09375 -4.75 1.625q2.203125 0.4375 4.375 1.234375l6.71875 2.515625zm9.40625 -16.859375l-16.59375 0l0 -2.53125l2.515625 0q-1.765625 -0.96875 -2.328125 -1.78125q-0.5625 -0.828125 -0.5625 -1.8125q0 -1.421875 0.90625 -2.890625l2.609375 0.96875q-0.609375 1.03125 -0.609375 2.0625q0 0.921875 0.5625 1.65625q0.546875 0.734375 1.53125 1.046875q1.5 0.46875 3.28125 0.46875l8.6875 0l0 2.8125zm0 -10.6875l-16.59375 0l0 -2.515625l2.328125 0q-1.21875 -0.78125 -1.953125 -2.078125q-0.75 -1.296875 -0.75 -2.953125q0 -1.84375 0.765625 -3.015625q0.765625 -1.1875 2.140625 -1.671875q-2.90625 -1.96875 -2.90625 -5.125q0 -2.46875 1.375 -3.796875q1.359375 -1.328125 4.203125 -1.328125l11.390625 0l0 2.796875l-10.453125 0q-1.6875 0 -2.421875 0.28125q-0.75 0.265625 -1.203125 0.984375q-0.453125 0.71875 -0.453125 1.6875q0 1.75 1.171875 2.90625q1.15625 1.15625 3.71875 1.15625l9.640625 0l0 2.8125l-10.78125 0q-1.875 0 -2.8125 0.6875q-0.9375 0.6875 -0.9375 2.25q0 1.1875 0.625 2.203125q0.625 1.0 1.828125 1.453125q1.203125 0.453125 3.46875 0.453125l8.609375 0l0 2.8125z" fill-rule="nonzero"/><path fill="#000000" fill-opacity="0.0" d="m190.25671 306.43045l0 -146.96063l58.173218 0l0 146.96063z" fill-rule="evenodd"/><path fill="#000000" d="m229.97672 295.0867l-22.90625 0l0 -8.59375q0 -2.625 0.703125 -4.203125q0.6875 -1.59375 2.140625 -2.484375q1.4375 -0.90625 3.015625 -0.90625q1.46875 0 2.765625 0.796875q1.296875 0.796875 2.09375 2.40625q0.609375 -2.078125 2.078125 -3.1875q1.46875 -1.125 3.46875 -1.125q1.609375 0 3.0 0.6875q1.375 0.671875 2.125 1.671875q0.75 1.0 1.140625 2.515625q0.375 1.5 0.375 3.6875l0 8.734375zm-13.28125 -3.03125l0 -4.953125q0 -2.015625 -0.265625 -2.890625q-0.34375 -1.15625 -1.140625 -1.734375q-0.796875 -0.59375 -2.0 -0.59375q-1.140625 0 -2.0 0.546875q-0.875 0.546875 -1.1875 1.5625q-0.328125 1.015625 -0.328125 3.484375l0 4.578125l6.921875 0zm10.578125 0l0 -5.703125q0 -1.46875 -0.109375 -2.0625q-0.1875 -1.046875 -0.625 -1.75q-0.4375 -0.703125 -1.265625 -1.15625q-0.84375 -0.453125 -1.9375 -0.453125q-1.28125 0 -2.21875 0.65625q-0.953125 0.65625 -1.328125 1.828125q-0.390625 1.15625 -0.390625 3.34375l0 5.296875l7.875 0zm-5.59375 -17.03125q-4.609375 0 -6.828125 -2.5625q-1.84375 -2.140625 -1.84375 -5.21875q0 -3.421875 2.25 -5.59375q2.234375 -2.171875 6.1875 -2.171875q3.203125 0 5.046875 0.96875q1.828125 0.953125 2.84375 2.796875q1.015625 1.828125 1.015625 4.0q0 3.484375 -2.234375 5.640625q-2.234375 2.140625 -6.4375 2.140625zm0 -2.890625q3.1875 0 4.78125 -1.390625q1.578125 -1.390625 1.578125 -3.5q0 -2.09375 -1.59375 -3.484375q-1.59375 -1.390625 -4.859375 -1.390625q-3.078125 0 -4.65625 1.40625q-1.59375 1.390625 -1.59375 3.46875q0 2.109375 1.578125 3.5q1.578125 1.390625 4.765625 1.390625zm8.296875 -26.71875l-2.09375 0q2.46875 1.578125 2.46875 4.640625q0 1.984375 -1.09375 3.65625q-1.09375 1.65625 -3.046875 2.578125q-1.96875 0.90625 -4.515625 0.90625q-2.484375 0 -4.5 -0.828125q-2.03125 -0.828125 -3.109375 -2.484375q-1.078125 -1.65625 -1.078125 -3.703125q0 -1.5 0.640625 -2.671875q0.625 -1.171875 1.640625 -1.90625l-8.21875 0l0 -2.796875l22.90625 0l0 2.609375zm-8.28125 8.890625q3.1875 0 4.765625 -1.34375q1.578125 -1.34375 1.578125 -3.171875q0 -1.84375 -1.5 -3.125q-1.515625 -1.296875 -4.609375 -1.296875q-3.40625 0 -5.0 1.3125q-1.59375 1.3125 -1.59375 3.234375q0 1.875 1.53125 3.140625q1.53125 1.25 4.828125 1.25zm14.671875 -15.796875l-2.640625 0.3125q0.25 -0.921875 0.25 -1.609375q0 -0.9375 -0.3125 -1.5q-0.3125 -0.5625 -0.875 -0.921875q-0.421875 -0.265625 -2.09375 -0.859375q-0.234375 -0.078125 -0.6875 -0.25l-16.625 6.296875l0 -3.03125l9.609375 -3.453125q1.828125 -0.671875 3.84375 -1.203125q-1.9375 -0.484375 -3.78125 -1.15625l-9.671875 -3.546875l0 -2.8125l16.875 6.3125q2.734375 1.015625 3.765625 1.578125q1.390625 0.75 2.03125 1.71875q0.65625 0.96875 0.65625 2.3125q0 0.8125 -0.34375 1.8125z" fill-rule="nonzero"/><path fill="#000000" fill-opacity="0.0" d="m258.6491 306.43045l0 -146.96063l58.173218 0l0 146.96063z" fill-rule="evenodd"/><path fill="#000000" d="m298.3691 295.0867l-22.90625 0l0 -3.03125l20.203125 0l0 -11.28125l2.703125 0l0 14.3125zm-5.34375 -28.921875l0.359375 -2.90625q2.546875 0.6875 3.953125 2.546875q1.40625 1.859375 1.40625 4.75q0 3.640625 -2.234375 5.78125q-2.25 2.125 -6.296875 2.125q-4.1875 0 -6.5 -2.15625q-2.3125 -2.15625 -2.3125 -5.59375q0 -3.328125 2.265625 -5.4375q2.265625 -2.109375 6.375 -2.109375q0.25 0 0.75 0.015625l0 12.375q2.734375 -0.15625 4.1875 -1.546875q1.453125 -1.390625 1.453125 -3.46875q0 -1.546875 -0.8125 -2.640625q-0.8125 -1.09375 -2.59375 -1.734375zm-4.546875 9.234375l0 -9.265625q-2.09375 0.1875 -3.140625 1.0625q-1.625 1.34375 -1.625 3.484375q0 1.9375 1.296875 3.265625q1.296875 1.3125 3.46875 1.453125zm11.265625 -15.15625l0.40625 -2.734375q1.265625 -0.171875 1.84375 -0.953125q0.78125 -1.046875 0.78125 -2.859375q0 -1.953125 -0.78125 -3.015625q-0.78125 -1.0625 -2.1875 -1.4375q-0.859375 -0.21875 -3.609375 -0.203125q2.171875 1.84375 2.171875 4.59375q0 3.421875 -2.46875 5.296875q-2.46875 1.875 -5.921875 1.875q-2.375 0 -4.375 -0.859375q-2.015625 -0.859375 -3.109375 -2.484375q-1.09375 -1.640625 -1.09375 -3.84375q0 -2.9375 2.375 -4.84375l-2.0 0l0 -2.59375l14.34375 0q3.875 0 5.484375 0.796875q1.625 0.78125 2.5625 2.5q0.9375 1.703125 0.9375 4.203125q0 2.96875 -1.34375 4.796875q-1.328125 1.828125 -4.015625 1.765625zm-9.96875 -2.328125q3.265625 0 4.765625 -1.296875q1.5 -1.296875 1.5 -3.25q0 -1.9375 -1.484375 -3.25q-1.5 -1.3125 -4.6875 -1.3125q-3.046875 0 -4.59375 1.359375q-1.546875 1.34375 -1.546875 3.25q0 1.875 1.53125 3.1875q1.515625 1.3125 4.515625 1.3125z" fill-rule="nonzero"/><path fill="#000000" fill-opacity="0.0" d="m251.927 164.88632l262.17322 0" fill-rule="evenodd"/><path stroke="#000000" stroke-width="3.0" stroke-linejoin="round" stroke-linecap="butt" d="m251.927 164.88632l262.17322 0" fill-rule="evenodd"/><path fill="#000000" fill-opacity="0.0" d="m254.94922 152.2167l262.17322 0" fill-rule="evenodd"/><path stroke="#000000" stroke-width="3.0" stroke-linejoin="round" stroke-linecap="butt" d="m254.94922 152.2167l262.17322 0" fill-rule="evenodd"/><path fill="#000000" fill-opacity="0.0" d="m252.84491 23.756643l262.17322 0" fill-rule="evenodd"/><path stroke="#000000" stroke-width="3.0" stroke-linejoin="round" stroke-linecap="butt" d="m252.84491 23.756643l262.17322 0" fill-rule="evenodd"/></g></svg>