<svg version="1.1" viewBox="0.0 0.0 168.76377952755905 168.76377952755905" fill="none" stroke="none" stroke-linecap="square" stroke-miterlimit="10" xmlns:xlink="http://www.w3.org/1999/xlink" xmlns="http://www.w3.org/2000/svg"><clipPath id="p.0"><path d="m0 0l168.76378 0l0 168.76378l-168.76378 0l0 -168.76378z" clip-rule="nonzero"/></clipPath><g clip-path="url(#p.0)"><path fill="#000000" fill-opacity="0.0" d="m0 0l168.76378 0l0 168.76378l-168.76378 0z" fill-rule="evenodd"/><path fill="#000000" d="m-0.023622047 28.105549l0 0c0 -15.536761 12.595035 -28.131796 28.131796 -28.131796l112.52382 0l0 0c7.461014 0 14.61644 2.9638772 19.892181 8.239613c5.2757263 5.275735 8.239609 12.431168 8.239609 19.892183l0 112.52382c0 15.536758 -12.595032 28.13179 -28.13179 28.13179l-112.52382 0c-15.536761 0 -28.131796 -12.595032 -28.131796 -28.13179z" fill-rule="evenodd"/></g></svg>