<svg version="1.1" viewBox="0.0 0.0 168.76377952755905 168.76377952755905" fill="none" stroke="none" stroke-linecap="square" stroke-miterlimit="10" xmlns:xlink="http://www.w3.org/1999/xlink" xmlns="http://www.w3.org/2000/svg"><clipPath id="p.0"><path d="m0 0l168.76378 0l0 168.76378l-168.76378 0l0 -168.76378z" clip-rule="nonzero"/></clipPath><g clip-path="url(#p.0)"><path fill="#000000" fill-opacity="0.0" d="m0 0l168.76378 0l0 168.76378l-168.76378 0z" fill-rule="evenodd"/><path fill="#000000" fill-opacity="0.0" d="m7.9580054 7.9580054l152.85039 0l0 152.85039l-152.85039 0z" fill-rule="evenodd"/><path stroke="#434343" stroke-width="12.0" stroke-linejoin="round" stroke-linecap="butt" stroke-dasharray="48.0,36.0" d="m7.9580054 7.9580054l152.85039 0l0 152.85039l-152.85039 0z" fill-rule="evenodd"/><path fill="#434343" d="m31.958006 31.958006l42.48819 0l0 42.48819l-42.48819 0z" fill-rule="evenodd"/><path stroke="#434343" stroke-width="8.0" stroke-linejoin="round" stroke-linecap="butt" d="m31.958006 31.958006l42.48819 0l0 42.48819l-42.48819 0z" fill-rule="evenodd"/><path fill="#434343" d="m94.32021 31.958006l42.488182 0l0 42.48819l-42.488182 0z" fill-rule="evenodd"/><path stroke="#434343" stroke-width="8.0" stroke-linejoin="round" stroke-linecap="butt" d="m94.32021 31.958006l42.488182 0l0 42.48819l-42.488182 0z" fill-rule="evenodd"/><path fill="#434343" d="m63.136482 94.32021l42.48819 0l0 42.488182l-42.48819 0z" fill-rule="evenodd"/><path stroke="#434343" stroke-width="8.0" stroke-linejoin="round" stroke-linecap="butt" d="m63.136482 94.32021l42.48819 0l0 42.488182l-42.48819 0z" fill-rule="evenodd"/></g></svg>