<svg version="1.1" viewBox="0.0 0.0 168.76377952755905 168.76377952755905" fill="none" stroke="none" stroke-linecap="square" stroke-miterlimit="10" xmlns:xlink="http://www.w3.org/1999/xlink" xmlns="http://www.w3.org/2000/svg"><clipPath id="p.0"><path d="m0 0l168.76378 0l0 168.76378l-168.76378 0l0 -168.76378z" clip-rule="nonzero"/></clipPath><g clip-path="url(#p.0)"><path fill="#000000" fill-opacity="0.0" d="m0 0l168.76378 0l0 168.76378l-168.76378 0z" fill-rule="evenodd"/><path fill="#000000" d="m117.38976 45.149605l0 0c0 18.229748 -14.77813 33.007874 -33.007874 33.007874l0 0c-8.754234 0 -17.149918 -3.4776 -23.340096 -9.667778c-6.190178 -6.190178 -9.667782 -14.585861 -9.667782 -23.340096l0 0c0 -18.229744 14.778126 -33.007874 33.007877 -33.007874l0 0c18.229744 0 33.007874 14.778129 33.007874 33.007874z" fill-rule="evenodd"/><path stroke="#000000" stroke-width="12.0" stroke-linejoin="round" stroke-linecap="butt" d="m117.38976 45.149605l0 0c0 18.229748 -14.77813 33.007874 -33.007874 33.007874l0 0c-8.754234 0 -17.149918 -3.4776 -23.340096 -9.667778c-6.190178 -6.190178 -9.667782 -14.585861 -9.667782 -23.340096l0 0c0 -18.229744 14.778126 -33.007874 33.007877 -33.007874l0 0c18.229744 0 33.007874 14.778129 33.007874 33.007874z" fill-rule="evenodd"/><path fill="#000000" fill-opacity="0.0" d="m84.38228 76.65354l0 79.9685" fill-rule="evenodd"/><path stroke="#000000" stroke-width="12.0" stroke-linejoin="round" stroke-linecap="butt" d="m84.38228 76.65354l0 79.9685" fill-rule="evenodd"/></g></svg>