<svg version="1.1" viewBox="0.0 0.0 168.76377952755905 168.76377952755905" fill="none" stroke="none" stroke-linecap="square" stroke-miterlimit="10" xmlns:xlink="http://www.w3.org/1999/xlink" xmlns="http://www.w3.org/2000/svg"><clipPath id="p.0"><path d="m0 0l168.76378 0l0 168.76378l-168.76378 0l0 -168.76378z" clip-rule="nonzero"/></clipPath><g clip-path="url(#p.0)"><path fill="#000000" fill-opacity="0.0" d="m0 0l168.76378 0l0 168.76378l-168.76378 0z" fill-rule="evenodd"/><path fill="#000000" fill-opacity="0.0" d="m13.12336 56.75328l24.818897 27.622047" fill-rule="evenodd"/><path stroke="#000000" stroke-width="12.0" stroke-linejoin="round" stroke-linecap="butt" d="m13.12336 56.75328l24.818897 27.622047" fill-rule="evenodd"/><path fill="#000000" fill-opacity="0.0" d="m155.64305 56.75328l-24.818909 27.622047" fill-rule="evenodd"/><path stroke="#000000" stroke-width="12.0" stroke-linejoin="round" stroke-linecap="butt" d="m155.64305 56.75328l-24.818909 27.622047" fill-rule="evenodd"/><path fill="#000000" fill-opacity="0.0" d="m37.942257 84.37533l92.88188 0" fill-rule="evenodd"/><path stroke="#000000" stroke-width="12.0" stroke-linejoin="round" stroke-linecap="butt" d="m37.942257 84.37533l92.88188 0" fill-rule="evenodd"/><path fill="#000000" d="m31.860893 84.28084l0 0c0 -3.4006805 2.8202515 -6.1574783 6.2992134 -6.1574783l0 0c1.6706543 0 3.2728844 0.64873505 4.454216 1.803482c1.1813316 1.1547546 1.8449936 2.720932 1.8449936 4.3539963l0 0c0 3.4006882 -2.8202515 6.157486 -6.2992096 6.157486l0 0c-3.478962 0 -6.2992134 -2.7567978 -6.2992134 -6.157486z" fill-rule="evenodd"/><path fill="#000000" d="m124.28346 84.28084l0 0c0 -3.4006805 2.820259 -6.1574783 6.2992096 -6.1574783l0 0c1.6706543 0 3.2728882 0.64873505 4.4542236 1.803482c1.1813354 1.1547546 1.8450012 2.720932 1.8450012 4.3539963l0 0c0 3.4006882 -2.8202667 6.157486 -6.299225 6.157486l0 0c-3.4789505 0 -6.2992096 -2.7567978 -6.2992096 -6.157486z" fill-rule="evenodd"/></g></svg>