<svg version="1.1" viewBox="0.0 0.0 168.76377952755905 168.76377952755905" fill="none" stroke="none" stroke-linecap="square" stroke-miterlimit="10" xmlns:xlink="http://www.w3.org/1999/xlink" xmlns="http://www.w3.org/2000/svg"><clipPath id="p.0"><path d="m0 0l168.76378 0l0 168.76378l-168.76378 0l0 -168.76378z" clip-rule="nonzero"/></clipPath><g clip-path="url(#p.0)"><path fill="#000000" fill-opacity="0.0" d="m0 0l168.76378 0l0 168.76378l-168.76378 0z" fill-rule="evenodd"/><path fill="#000000" d="m67.26247 28.244078l0 0c0 -9.454073 7.6640396 -17.11811 17.11811 -17.11811l0 0c4.540001 0 8.894058 1.8035097 12.104332 5.0137787c3.210266 3.210268 5.0137787 7.5643253 5.0137787 12.104332l0 0c0 9.454069 -7.6640396 17.118109 -17.11811 17.118109l0 0c-9.454071 0 -17.11811 -7.6640396 -17.11811 -17.118109z" fill-rule="evenodd"/><path fill="#000000" d="m67.26742 140.52104l0 0c0 -9.454071 7.6640396 -17.11811 17.11811 -17.11811l0 0c4.5400085 0 8.894066 1.8035126 12.104332 5.0137863c3.210266 3.210266 5.0137787 7.564316 5.0137787 12.104324l0 0c0 9.454071 -7.6640396 17.118118 -17.11811 17.118118l0 0c-9.454071 0 -17.11811 -7.6640472 -17.11811 -17.118118z" fill-rule="evenodd"/><path fill="#000000" fill-opacity="0.0" d="m16.192951 152.57187l136.37796 -136.37796" fill-rule="evenodd"/><path stroke="#000000" stroke-width="12.0" stroke-linejoin="round" stroke-linecap="butt" d="m16.192951 152.57187l136.37796 -136.37796" fill-rule="evenodd"/><path fill="#000000" fill-opacity="0.0" d="m16.193598 16.19204l136.37794 136.37796" fill-rule="evenodd"/><path stroke="#000000" stroke-width="12.0" stroke-linejoin="round" stroke-linecap="butt" d="m16.193598 16.19204l136.37794 136.37796" fill-rule="evenodd"/></g></svg>