<svg version="1.1" viewBox="0.0 0.0 168.76377952755905 168.76377952755905" fill="none" stroke="none" stroke-linecap="square" stroke-miterlimit="10" xmlns:xlink="http://www.w3.org/1999/xlink" xmlns="http://www.w3.org/2000/svg"><clipPath id="p.0"><path d="m0 0l168.76378 0l0 168.76378l-168.76378 0l0 -168.76378z" clip-rule="nonzero"/></clipPath><g clip-path="url(#p.0)"><path fill="#000000" fill-opacity="0.0" d="m0 0l168.76378 0l0 168.76378l-168.76378 0z" fill-rule="evenodd"/><path fill="#000000" fill-opacity="0.0" d="m53.979004 159.35695l0 -149.95274" fill-rule="evenodd"/><path stroke="#000000" stroke-width="12.0" stroke-linejoin="round" stroke-linecap="butt" d="m53.979004 159.35695l0 -149.95274" fill-rule="evenodd"/><path fill="#ffffff" d="m65.77165 84.38189l0 0c0 -10.254234 8.312698 -18.566925 18.566933 -18.566925l0 0c4.9242554 0 9.646828 1.9561462 13.128799 5.4381256c3.4819717 3.4819717 5.4381256 8.204544 5.4381256 13.128799l0 0c0 10.254234 -8.312698 18.566933 -18.566925 18.566933l0 0c-10.254234 0 -18.566933 -8.312698 -18.566933 -18.566933z" fill-rule="evenodd"/><path stroke="#000000" stroke-width="12.0" stroke-linejoin="round" stroke-linecap="butt" d="m65.77165 84.38189l0 0c0 -10.254234 8.312698 -18.566925 18.566933 -18.566925l0 0c4.9242554 0 9.646828 1.9561462 13.128799 5.4381256c3.4819717 3.4819717 5.4381256 8.204544 5.4381256 13.128799l0 0c0 10.254234 -8.312698 18.566933 -18.566925 18.566933l0 0c-10.254234 0 -18.566933 -8.312698 -18.566933 -18.566933z" fill-rule="evenodd"/><path fill="#000000" fill-opacity="0.0" d="m114.78576 159.35695l0 -149.95274" fill-rule="evenodd"/><path stroke="#000000" stroke-width="12.0" stroke-linejoin="round" stroke-linecap="butt" d="m114.78576 159.35695l0 -149.95274" fill-rule="evenodd"/></g></svg>